<svg viewBox="0 0 129.78 91.13" xmlns="http://www.w3.org/2000/svg"><linearGradient id="a" gradientTransform="scale(56.6 -56.6) rotate(45 -633.247 376.328)" gradientUnits="userSpaceOnUse" x1="-452.64" x2="-451.64" y1="-338.67" y2="-338.67"><stop offset="0" stop-color="#d60b51"/><stop offset="1" stop-color="#fbf6e2"/></linearGradient><linearGradient id="b" gradientTransform="scale(32.3 -32.3) rotate(-45 182.57 -716.619)" gradientUnits="userSpaceOnUse" x1="-452.64" x2="-451.64" y1="-338.66" y2="-338.66"><stop offset="0" stop-color="#37aae1"/><stop offset="1" stop-color="#fbf6e2"/></linearGradient><linearGradient id="c" gradientTransform="scale(45.42 -45.42) rotate(-45 181.91 -718.022)" gradientUnits="userSpaceOnUse" x1="-452.64" x2="-451.64" y1="-338.67" y2="-338.67"><stop offset="0" stop-color="#fbf6e2"/><stop offset="1" stop-color="#e94e1b"/></linearGradient><linearGradient id="d" gradientTransform="scale(19.95 -19.95) rotate(45 -631.57 379.974)" gradientUnits="userSpaceOnUse" x1="-452.64" x2="-451.64" y1="-338.65" y2="-338.65"><stop offset="0" stop-color="#fbf6e2"/><stop offset="1" stop-color="#dedc00"/></linearGradient><linearGradient id="e" gradientTransform="matrix(0 15.13 15.13 0 5177.68 6850.43)" gradientUnits="userSpaceOnUse" x1="-452.64" x2="-451.64" y1="-338.67" y2="-338.67"><stop offset="0" stop-color="#3baa35"/><stop offset="1" stop-color="#fbf6e2"/></linearGradient><linearGradient id="f" gradientTransform="matrix(73.53 0 0 -73.53 33337.75 -24861.85)" gradientUnits="userSpaceOnUse" x1="-452.64" x2="-451.64" y1="-338.68" y2="-338.68"><stop offset="0" stop-color="#fbf6e2"/><stop offset=".23" stop-color="#e3e0d5"/><stop offset=".5" stop-color="#cfceca"/><stop offset=".67" stop-color="#c7c7c6"/><stop offset="1" stop-color="#8b8a80"/></linearGradient><path d="M31.55 48.89a7.56 7.56 0 1 1 10.68 10.69L12.9 88.92a7.56 7.56 0 0 1-10.69-10.7z" fill="url(#a)"/><path d="M19 17.14A7.56 7.56 0 0 1 29.67 6.45l12.27 12a7.56 7.56 0 0 1-10.69 10.73z" fill="url(#b)"/><path d="M73 48.89a7.56 7.56 0 0 0-10.7 10.69L83.74 81a7.56 7.56 0 1 0 10.69-10.67z" fill="url(#c)"/><path d="M76.7 25.76A7.56 7.56 0 1 0 66 15.07l-3.4 3.42a7.56 7.56 0 0 0 10.69 10.69z" fill="url(#d)"/><path d="M44.53 7.56a7.56 7.56 0 1 1 15.11 0 7.56 7.56 0 0 1-15.11 0z" fill="url(#e)"/><path d="M60.4 35.44a3 3 0 0 0-2.95 3.27 3.36 3.36 0 0 0 .7 2.12 3 3 0 0 0 2.31 1.06 2.86 2.86 0 0 0 2.35-1.06c.4-.54 1.37.08.82.71A4.11 4.11 0 0 1 60.44 43a4.31 4.31 0 0 1-3.23-1.43 4.69 4.69 0 0 1-1-3.15 4.06 4.06 0 0 1 4.26-4 3.68 3.68 0 0 1 3 1.37c.47.53-.4 1.21-.85.67a2.89 2.89 0 0 0-2.22-1.02zm5.51 6a4.34 4.34 0 0 1-1-3.09 4.13 4.13 0 0 1 3-3.78 4.91 4.91 0 0 1 2.41 0 4.13 4.13 0 0 1 3 3.78 4.37 4.37 0 0 1-1 3.09 4.32 4.32 0 0 1-6.44 0zm3.2-5.92a3.65 3.65 0 0 0-.85.11 3 3 0 0 0-2.14 3.06 3.19 3.19 0 0 0 .71 2 3 3 0 0 0 2.3 1.06 3.16 3.16 0 0 0 2.31-1.06 3.3 3.3 0 0 0 .71-2A3 3 0 0 0 70 35.67a4.09 4.09 0 0 0-.89-.11zm19.64 2.49a2.43 2.43 0 0 0-2.49-2.38 3 3 0 0 0-3 3.1v3.54a.6.6 0 0 1-1.19 0v-4a2.61 2.61 0 0 0-1.11-2.26 2.53 2.53 0 0 0-1.38-.37 3 3 0 0 0-3 3v3.62a.59.59 0 0 1-1.17 0v-7.14a.58.58 0 0 1 .58-.56.54.54 0 0 1 .56.56v1.11a3.57 3.57 0 0 1 6.29.45A3.75 3.75 0 0 1 89.92 38v4.31a.53.53 0 0 1-.59.56.52.52 0 0 1-.58-.56zM96.18 43a3 3 0 0 1-2.61-1.29v3.46a.59.59 0 0 1-1.17 0v-10a.52.52 0 0 1 .59-.56.49.49 0 0 1 .55.56v.75a3 3 0 0 1 2.64-1.41 4.22 4.22 0 0 1 1.54.3A4.17 4.17 0 0 1 100.3 39a4 4 0 0 1-4.12 4zm-2.61-4.9v1.27a2.5 2.5 0 0 0 2.56 2.47 3 3 0 0 0 2.75-1.72 3.64 3.64 0 0 0 .24-1.18 3.32 3.32 0 0 0-1.19-2.74 3 3 0 0 0-1.66-.61 2.51 2.51 0 0 0-2.7 2.51zm10.76-3.3a3.81 3.81 0 0 1 1.72-.3 2.89 2.89 0 0 1 2.55 1.25v-.61a.53.53 0 0 1 .57-.58.56.56 0 0 1 .6.58v7.14a.56.56 0 0 1-.6.58.53.53 0 0 1-.57-.58v-.77A3 3 0 0 1 106 43a4.11 4.11 0 0 1-2.32-.69 4.26 4.26 0 0 1-1.8-3.78 4 4 0 0 1 2.48-3.72zm4.27 4.55v-1.27a2.4 2.4 0 0 0-2.6-2.47 2.87 2.87 0 0 0-2.75 1.72 3.19 3.19 0 0 0-.24 1.19 3.23 3.23 0 0 0 1.17 2.73 3.11 3.11 0 0 0 1.66.61 2.55 2.55 0 0 0 2.76-2.51zm10.4-1.3a2.49 2.49 0 0 0-2.49-2.51 3.05 3.05 0 0 0-3 3v3.73a.52.52 0 0 1-.58.56.54.54 0 0 1-.61-.56v-7.2a.58.58 0 0 1 1.16 0v1a3.26 3.26 0 0 1 3.07-1.67 3.51 3.51 0 0 1 3.65 3.6v4.26a.52.52 0 0 1-.58.56.54.54 0 0 1-.6-.56zm2.4-2.77a.59.59 0 0 1 1.09-.46l3.09 6.18 3.07-6.23c.29-.63 1.35-.24 1.09.44l-5.16 10.29c-.39.75-1.4.35-1.09-.41l1.41-2.88z" fill="url(#f)"/></svg>