<svg viewBox="0 0 93.45 75.61" xmlns="http://www.w3.org/2000/svg" xmlns:xlink="http://www.w3.org/1999/xlink"><linearGradient id="a" gradientTransform="matrix(-.1 -75.61 -75.61 .1 -2806.87 -23540.56)" gradientUnits="userSpaceOnUse" x1="-312.4" x2="-311.4" y1="-37.79" y2="-37.79"><stop offset="0" stop-color="#ecb700"/><stop offset=".1" stop-color="#ecb704"/><stop offset=".19" stop-color="#ebb90f"/><stop offset=".28" stop-color="#e9ba22"/><stop offset=".36" stop-color="#e7bd3d"/><stop offset=".45" stop-color="#e5c15f"/><stop offset=".5" stop-color="#e3c376"/><stop offset=".55" stop-color="#dbb76d"/><stop offset=".64" stop-color="#c59654"/><stop offset=".77" stop-color="#a1612d"/><stop offset=".89" stop-color="#792600"/><stop offset="1" stop-color="#3a0d00"/></linearGradient><linearGradient id="b" gradientTransform="scale(59.2 -59.2) rotate(69.29 -182.248 207.354)" x1="-312.4" x2="-311.4" xlink:href="#a" y1="-37.79" y2="-37.79"/><linearGradient id="c" gradientTransform="scale(44.08 -44.08) rotate(69.29 -181.978 207.423)" x1="-312.4" x2="-311.4" xlink:href="#a" y1="-37.8" y2="-37.8"/><linearGradient id="d" gradientTransform="matrix(10 -26.46 -26.46 -10 2178.29 -8593.01)" x1="-312.4" x2="-311.4" xlink:href="#a" y1="-37.77" y2="-37.77"/><path d="M79.73 0c7.6 0 13.75 16.94 13.72 37.82s-6.2 37.79-13.81 37.79c-2.84 0-5.49-2.39-7.68-6.47a4.18 4.18 0 0 0 1.37-.34c1.48 1.74 3.11 2.71 4.84 2.71 6.77 0 12.28-15.08 12.31-33.7S85 4.1 78.24 4.09c-1.72 0-3.37 1-4.87 2.73A4.74 4.74 0 0 0 72 6.49C74.21 2.39 76.87 0 79.73 0z" fill="url(#a)"/><path d="M71.68 6.47h.33a4.74 4.74 0 0 1 1.36.33c5.5 2.26 9.71 15.28 9.69 31s-4.23 28.69-9.73 31a4.18 4.18 0 0 1-1.37.34h-.35c-2.93 0-5.59-3-7.6-8h.23a5 5 0 0 0 .53 0c1.6 2.94 3.54 4.65 5.61 4.65a4.2 4.2 0 0 0 .86-.1c5.21-1.22 9.31-13.21 9.32-27.83S76.52 11.16 71.3 10a3.56 3.56 0 0 0-.86-.11c-2.08 0-4 1.73-5.63 4.68a3 3 0 0 0-.52 0H64c2.07-5.06 4.75-8.1 7.68-8.1z" fill="url(#b)"/><path d="M64.28 14.49a3 3 0 0 1 .52 0c4.46.73 8 10.89 8 23.29 0 8.74-1.77 16.34-4.35 20.34l-.24.36a5.5 5.5 0 0 1-3.39 2.58 5 5 0 0 1-.53 0H64c-2.53-.18-4.78-3.39-6.29-8.35l.32-.06c1.31 3.51 3.09 5.72 5.05 5.88h.5c1.42-.14 2.74-1.36 3.87-3.36.05-.1.11-.19.15-.29 2-3.75 3.3-10 3.3-17.14 0-11.24-3.23-20.41-7.28-20.8h-.5c-2 .16-3.75 2.38-5.07 5.9a1.55 1.55 0 0 0-.31-.06c1.51-5 3.77-8.17 6.29-8.37z" fill="url(#c)"/><path d="M57.54 22.86h.21a1.55 1.55 0 0 1 .31.06c2.77.72 4.93 7.13 4.92 14.91S60.8 52 58 52.74l-.32.06h-.21c-2.21 0-4.09-3.59-4.95-8.75h.07c.82 4.22 2.43 7.1 4.29 7.1a2.2 2.2 0 0 0 .36 0l.22-.06c2.42-.77 4.3-6.41 4.3-13.25s-1.86-12.51-4.28-13.26l-.22-.05a2 2 0 0 0-.34 0c-1.53 0-2.9 1.94-3.79 5H53c1-4.06 2.66-6.67 4.54-6.67z" fill="url(#d)"/><path d="M0 24.18h4.57v16.38h8.03v3.84H0zm20.43 20.55c-4.29 0-7.59-2.82-7.59-7.56S16 29.4 20.7 29.4a7.13 7.13 0 0 1 7.47 7.53c0 5.34-3.81 7.8-7.71 7.8zm.12-3.27c1.8 0 2.91-1.77 2.91-4.41 0-2.16-.84-4.38-2.91-4.38s-3 2.22-3 4.41c0 2.49 1.05 4.38 3 4.38zm23.13.81c0 2.82-.58 5.13-2.26 6.6a8.92 8.92 0 0 1-5.94 1.8 11.74 11.74 0 0 1-5.28-1.11l.91-3.48a8.88 8.88 0 0 0 4.25 1.11c2.16 0 3.81-1.14 3.81-3.87v-.93h-.06a4.73 4.73 0 0 1-4 1.89c-3.63 0-6.2-2.94-6.2-7.14 0-4.74 3-7.74 6.66-7.74a4.37 4.37 0 0 1 4 2.1h.06l.15-1.77h4c-.06 1-.11 2.2-.11 4.38zm-4.57-6.57a4 4 0 0 0-.08-.84 2.51 2.51 0 0 0-2.46-2c-1.69 0-3 1.5-3 4.17 0 2.19 1.08 3.9 3 3.9A2.48 2.48 0 0 0 39 39.09a3.88 3.88 0 0 0 .15-1.23zm13.77 9.03c-4.29 0-7.59-2.82-7.59-7.56s3.12-7.77 7.86-7.77a7.13 7.13 0 0 1 7.46 7.53c0 5.34-3.8 7.8-7.69 7.8zm.12-3.27c1.8 0 2.91-1.77 2.91-4.41 0-2.16-.83-4.38-2.91-4.38s-3 2.22-3 4.41c0 2.49 1 4.38 3 4.38z" fill="#fff"/></svg>