<svg viewBox="0 0 99.21 99.23" xmlns="http://www.w3.org/2000/svg"><linearGradient id="a" gradientTransform="matrix(6.16 44.64 44.64 -6.16 1189.55 1125.15)" gradientUnits="userSpaceOnUse" x1="-28.11" x2="-27.11" y1="-21.25" y2="-21.25"><stop offset="0" stop-color="#ee76a0"/><stop offset=".42" stop-color="#ed749f"/><stop offset=".58" stop-color="#e96d9b"/><stop offset=".67" stop-color="#e46495"/><stop offset=".75" stop-color="#e06091"/><stop offset=".82" stop-color="#d35685"/><stop offset=".9" stop-color="#be4471"/><stop offset=".98" stop-color="#a12c56"/><stop offset="1" stop-color="#9b2750"/></linearGradient><linearGradient id="b" gradientTransform="scale(-31.36 31.36) rotate(-58.15 5.295 -33.012)" gradientUnits="userSpaceOnUse" x1="-28.11" x2="-27.11" y1="-21.25" y2="-21.25"><stop offset="0" stop-color="#f4e950"/><stop offset=".31" stop-color="#f2e74e"/><stop offset=".49" stop-color="#ecde49"/><stop offset=".63" stop-color="#e3d140"/><stop offset=".71" stop-color="#e0cd3e"/><stop offset=".81" stop-color="#d7c136"/><stop offset=".9" stop-color="#c8ac2a"/><stop offset=".99" stop-color="#b38f1a"/><stop offset="1" stop-color="#b28e19"/></linearGradient><linearGradient id="c" gradientTransform="scale(25.63 -25.63) rotate(44.86 -36.436 24.88)" gradientUnits="userSpaceOnUse" x1="-28.11" x2="-27.11" y1="-21.23" y2="-21.23"><stop offset="0" stop-color="#314999"/><stop offset=".01" stop-color="#334c9b"/><stop offset=".04" stop-color="#436bb1"/><stop offset=".07" stop-color="#5085c3"/><stop offset=".11" stop-color="#5a98d1"/><stop offset=".15" stop-color="#61a6db"/><stop offset=".2" stop-color="#66afe0"/><stop offset=".29" stop-color="#67b1e2"/><stop offset=".5" stop-color="#77c1eb"/><stop offset=".76" stop-color="#84cdf2"/><stop offset="1" stop-color="#88d1f4"/></linearGradient><linearGradient id="d" gradientTransform="scale(-52.28 52.28) rotate(-61.15 4.654 -32.913)" gradientUnits="userSpaceOnUse" x1="-28.11" x2="-27.11" y1="-21.26" y2="-21.26"><stop offset="0" stop-color="#f08363"/><stop offset=".41" stop-color="#f08161"/><stop offset=".61" stop-color="#ef795b"/><stop offset=".76" stop-color="#ed6c4f"/><stop offset=".81" stop-color="#ec664a"/><stop offset=".84" stop-color="#e66247"/><stop offset=".88" stop-color="#d5583e"/><stop offset=".92" stop-color="#b94830"/><stop offset=".97" stop-color="#93311c"/><stop offset="1" stop-color="#79220f"/></linearGradient><linearGradient id="e" gradientTransform="scale(31.68 -31.68) rotate(31.85 -48.908 38.336)" gradientUnits="userSpaceOnUse" x1="-28.11" x2="-27.11" y1="-21.25" y2="-21.25"><stop offset="0" stop-color="#389d36"/><stop offset=".14" stop-color="#4ea631"/><stop offset=".37" stop-color="#6cb129"/><stop offset=".59" stop-color="#82ba23"/><stop offset=".81" stop-color="#90bf20"/><stop offset="1" stop-color="#94c11f"/></linearGradient><path d="M80.54 44.96L76.69 0 60.72 9.79l1.26 15.22z" fill="url(#a)" fill-rule="evenodd"/><path d="M76.69 0l1.82.33-1.71 1.06z" fill="#8f1d5c" fill-rule="evenodd"/><path d="M58.76 21.56l21.77 23.4-15.2 4.49-2.76-2.9z" fill="url(#b)" fill-rule="evenodd"/><path d="M45.53 39.83l-1.75-11.85 14.98-6.42 6.53 42.91z" fill="url(#c)" fill-rule="evenodd"/><path d="M65.29 64.47L32.1 23.07l-.82 6.21-20.82 10.61 39.39 29.06z" fill="url(#d)" fill-rule="evenodd"/><path d="M7.09 37.41l-.58 4.49 24.77-12.62.82-6.21z" fill="url(#e)" fill-rule="evenodd"/><path d="M7.51 99.23A7.22 7.22 0 0 1 0 91.74a7.41 7.41 0 0 1 7.47-7.52c3.6 0 5.69 1.89 6.41 3.88.09.21.09.31 0 .36l-.68.23c-.12 0-.23 0-.29-.19a5.53 5.53 0 0 0-5.42-3.22 6.45 6.45 0 0 0 0 12.89 5.92 5.92 0 0 0 5.51-3.3c.15-.23.19-.28.36-.17l.55.32c.13.08.13.12 0 .31a6.82 6.82 0 0 1-6.4 3.9zm15.94 0A7.51 7.51 0 1 1 31 91.74a7.41 7.41 0 0 1-7.55 7.49zm0-14a6.45 6.45 0 1 0 6.28 6.46 6.34 6.34 0 0 0-6.28-6.41zm23.7 13.64h-.89c-.08 0-.12 0-.12-.19l-.64-11.43L40.23 95c-.08.12-.1.1-.19.1s-.13 0-.21-.1l-5.27-7.69L34 98.57c0 .28-.05.3-.19.3h-.89c-.15 0-.15-.07-.15-.28l.85-14a.29.29 0 0 1 .29-.27.37.37 0 0 1 .32.21l6 8.83L46 84.54a.35.35 0 0 1 .3-.19.26.26 0 0 1 .25.25l.8 14.08c.01.15-.01.19-.2.19zm7.54-5.55h-4v5.36c0 .15 0 .19-.15.19h-.89c-.13 0-.15 0-.15-.19v-14c0-.21.1-.19.15-.19h5.5a4.44 4.44 0 0 1 4.74 4.4c-.04 2.74-2.09 4.43-5.2 4.43zm.36-7.74h-4.4v6.69h4.44a3.33 3.33 0 0 0 3.6-3.35 3.4 3.4 0 0 0-3.64-3.34zm17.71 13.29h-.91c-.13 0-.15 0-.23-.17l-1.57-3.28h-8.66l-1.52 3.19c-.11.19-.15.26-.36.26h-.74c-.26 0-.3 0-.17-.3.76-1.59 5.63-11.62 7-14.26 0-.09.07-.15.17-.15s.13.06.17.15c1.34 2.69 6.14 12.5 7 14.3.06.17.06.26-.18.26zm-6.56-11.6a6.5 6.5 0 0 0-.47-.91 5.42 5.42 0 0 0-.46.89c-1.27 2.81-3.41 7.15-3.41 7.15h7.72s-2.05-4.4-3.38-7.13zm19.4 11.81a.36.36 0 0 1-.31-.17c-1.06-1.29-9.84-11.85-9.84-11.85v11.62c0 .17 0 .19-.15.19h-.87c-.13 0-.17 0-.17-.21V84.52a.17.17 0 0 1 .19-.17.4.4 0 0 1 .32.15c1.4 1.52 9.88 11.89 9.88 11.89V84.71c0-.17 0-.19.19-.19h.83c.15 0 .17 0 .17.25v14.12c0 .11-.07.19-.24.19zm8.18-5.63v5.14c0 .26 0 .28-.24.28h-.78c-.13 0-.17 0-.17-.23v-5.19s-4.25-6.88-5.4-8.72c-.08-.15 0-.21.24-.21h.76c.17 0 .19 0 .3.19.91 1.42 4.69 7.58 4.69 7.58s3.79-6.1 4.7-7.52c.15-.23.19-.25.28-.25H99c.24 0 .26.06.15.25-1.27 2.08-5.37 8.68-5.37 8.68z" fill="#fff"/></svg>