<svg viewBox="0 0 124.88 61.6" xmlns="http://www.w3.org/2000/svg"><linearGradient id="a" gradientTransform="matrix(0 -24.16 -24.16 0 -11788.36 -308.15)" gradientUnits="userSpaceOnUse" x1="-15.28" x2="-14.28" y1="-488.48" y2="-488.48"><stop offset="0" stop-color="#3bbcee"/><stop offset=".4" stop-color="#38a9e1"/><stop offset=".64" stop-color="#3aa"/><stop offset=".88" stop-color="#2fab7a"/><stop offset="1" stop-color="#2dab67"/></linearGradient><linearGradient id="b" gradientTransform="matrix(20.36 0 0 -20.36 321.81 -9925.02)" gradientUnits="userSpaceOnUse" x1="-15.28" x2="-14.28" y1="-488.46" y2="-488.46"><stop offset="0" stop-color="#94c127"/><stop offset=".52" stop-color="#3ca935"/><stop offset=".72" stop-color="#776629"/><stop offset=".91" stop-color="#a6301f"/><stop offset="1" stop-color="#b91b1b"/></linearGradient><linearGradient id="c" gradientTransform="matrix(26.57 0 0 -26.57 410.66 -12954.07)" gradientUnits="userSpaceOnUse" x1="-15.28" x2="-14.28" y1="-488.46" y2="-488.46"><stop offset="0" stop-color="#e2161b"/><stop offset=".3" stop-color="#de171b"/><stop offset=".63" stop-color="#d0181b"/><stop offset=".98" stop-color="#bb1b1b"/><stop offset="1" stop-color="#b91b1b"/></linearGradient><linearGradient id="d" gradientTransform="matrix(0 -20.4 -20.4 0 -9951 -250.32)" gradientUnits="userSpaceOnUse" x1="-15.28" x2="-14.28" y1="-488.47" y2="-488.47"><stop offset="0" stop-color="#2172b8"/><stop offset=".05" stop-color="#45679e"/><stop offset=".1" stop-color="#6b5b84"/><stop offset=".17" stop-color="#8d506c"/><stop offset=".23" stop-color="#a94758"/><stop offset=".31" stop-color="#c04048"/><stop offset=".4" stop-color="#d13b3b"/><stop offset=".51" stop-color="#de3732"/><stop offset=".65" stop-color="#e5352d"/><stop offset="1" stop-color="#e7342c"/></linearGradient><linearGradient id="e" gradientTransform="matrix(13.41 0 0 -13.41 221.04 -6511.61)" gradientUnits="userSpaceOnUse" x1="-15.28" x2="-14.28" y1="-488.49" y2="-488.49"><stop offset="0" stop-color="#e7342c"/><stop offset=".02" stop-color="#e53130"/><stop offset=".18" stop-color="#dd1f45"/><stop offset=".33" stop-color="#d91452"/><stop offset=".48" stop-color="#d71056"/><stop offset="1" stop-color="#a11a5c"/></linearGradient><linearGradient id="f" gradientTransform="matrix(0 -3.81 -3.81 0 -1858.41 -13.96)" gradientUnits="userSpaceOnUse" x1="-15.28" x2="-14.28" y1="-488.45" y2="-488.45"><stop offset="0" stop-color="#b91b1b"/><stop offset=".02" stop-color="#bb1b1b"/><stop offset=".37" stop-color="#d0181b"/><stop offset=".7" stop-color="#de171b"/><stop offset="1" stop-color="#e2161b"/></linearGradient><linearGradient id="g" gradientTransform="matrix(0 -2.49 -2.49 0 -1185.49 -3.45)" gradientUnits="userSpaceOnUse" x1="-15.28" x2="-14.28" y1="-488.46" y2="-488.46"><stop offset="0" stop-color="#a11a5c"/><stop offset=".52" stop-color="#d71056"/><stop offset=".67" stop-color="#d91452"/><stop offset=".82" stop-color="#dd1f45"/><stop offset=".98" stop-color="#e53130"/><stop offset="1" stop-color="#e7342c"/></linearGradient><path d="M14.41 57.58s-1.41 2.08-2.55 2.51a3.26 3.26 0 0 1-2.92-.2A2.27 2.27 0 0 1 8.1 59s.61 1.81 1.76 2a4.13 4.13 0 0 0 3.64-1.74 5.47 5.47 0 0 0 .91-1.68z" fill="#085287"/><path d="M10.15 40.83S7 52.61 7.61 57s3 4.89 4.58 3.73a8.47 8.47 0 0 0 2.22-3.16s-2.67 3.22-2.59-3.42c.06-5.13 3.5-17 3.5-17z" fill="url(#a)"/><path d="M15.16 37.68s-1.95 1.77-3.35 2.81a21 21 0 0 1-1.93 1.32l-.28 1.26a24.93 24.93 0 0 0 2.81-1.9 29.63 29.63 0 0 0 2.44-2.33z" fill="#008d83"/><path d="M31.2 4.79s.46-3.71-1.2-4.52c-2.1-1-7.72.23-13.22 17.54s-5.91 20-5.91 20 1.57.41 3.25-1.4a10.39 10.39 0 0 0 2.08-2.85s3.8-12.09 6.42-19.49c3.3-9.15 5.14-9 5.92-9.67s2.66.39 2.66.39z" fill="url(#b)"/><path d="M9.94 38.09c-2.64 1.7-6.31 2.68-5 4.69 2 3 15-7.37 20.94-18.93C30.6 14.7 31.82 5.28 31 3.69 29.66 1.07 25.86 7 25.86 7s1.48-1.55 0 5.91C24.36 20 20 31.62 9.94 38.09z" fill="url(#c)"/><path d="M25.86 7s3.8-5.92 5.14-3.3a7.47 7.47 0 0 1 .15 3.24S30.1.68 25.86 7z" fill="#763324"/><path d="M16.86 43.33c1.83 4-.69 11.45-2.67 14.63-1.48 2.38-3.19 3.67-5 2.68 0 0 1.92 2.31 5.7-.25 3-2 5-6.82 5.09-12.4C20.06 43 18 41.2 18 41.2a6.53 6.53 0 0 0-.63.3 1.15 1.15 0 0 0-.54 1.84" fill="url(#d)"/><path d="M16.86 43.33s-2.11-2.72-.24-3.87c1.6-1 4.14-1.88 6-3.37s2.92-5.25 4.8-4.93 2.65 3.29.57 5.65c-2.76 3.12-8.88 4-10.12 4.55-1.87.86-1.01 1.97-1.01 1.97z" fill="url(#e)"/><path d="M16.87 43.35a.89.89 0 0 1 .32-1.13 3 3 0 0 1 1.3-.46 3.37 3.37 0 0 0-.28-.36l-.11-.13A3.16 3.16 0 0 0 17 42a1.14 1.14 0 0 0-.32 1 3 3 0 0 0 .19.35z" fill="#be1b24"/><path d="M3.81 42.29a1.91 1.91 0 1 1-1.91-1.91 1.9 1.9 0 0 1 1.91 1.91z" fill="url(#f)"/><path d="M32.6 33.35a1.25 1.25 0 1 1-1.25-1.25 1.25 1.25 0 0 1 1.25 1.25z" fill="url(#g)"/><g fill="#fff"><path d="M37.93 46.65a7.16 7.16 0 0 0 1.61-.18 11.17 11.17 0 0 0 1.69-.53l.43 1.18a10.21 10.21 0 0 1-1.89.69 8.9 8.9 0 0 1-2.22.29 5.06 5.06 0 0 1-1.91-.31 3.1 3.1 0 0 1-2-2.18 6.54 6.54 0 0 1-.24-1.71 15.93 15.93 0 0 1 .09-1.61 10.4 10.4 0 0 1 .35-1.73 8.17 8.17 0 0 1 .68-1.66 5 5 0 0 1 1.09-1.42 5.15 5.15 0 0 1 1.6-1 6.15 6.15 0 0 1 2.2-.36 6.58 6.58 0 0 1 1.51.15 8 8 0 0 1 .94.27 1.4 1.4 0 0 1 .55.32.73.73 0 0 1 .18.52v.14a2 2 0 0 1-.07.44c-.05.19-.11.42-.18.67s-.15.52-.25.79-.19.5-.28.71l-1-.07.19-2.22a3.27 3.27 0 0 0-.75-.19 5.26 5.26 0 0 0-.89-.08 3.12 3.12 0 0 0-1.75.5 4.25 4.25 0 0 0-1.24 1.35 6.59 6.59 0 0 0-.75 1.94 10.11 10.11 0 0 0-.25 2.29 4.94 4.94 0 0 0 .13 1.17 2.66 2.66 0 0 0 .43 1 2.09 2.09 0 0 0 .79.64 2.89 2.89 0 0 0 1.21.19zM49.81 36.1a4.92 4.92 0 0 1 2 .38 3.49 3.49 0 0 1 1.34 1 4.06 4.06 0 0 1 .74 1.5 7.12 7.12 0 0 1 .22 1.81 11.92 11.92 0 0 1-.27 2.45 7.13 7.13 0 0 1-1 2.35 5.64 5.64 0 0 1-1.8 1.77 5.17 5.17 0 0 1-2.82.7 5 5 0 0 1-2-.36 3.3 3.3 0 0 1-1.32-1 3.61 3.61 0 0 1-.71-1.44 6.6 6.6 0 0 1-.19-1.7 11.19 11.19 0 0 1 .31-2.6 7.76 7.76 0 0 1 1-2.4 5.71 5.71 0 0 1 1.79-1.77 5 5 0 0 1 2.71-.69zm-.07 1.52a2.82 2.82 0 0 0-1.93.65 4.68 4.68 0 0 0-1.16 1.6 7.23 7.23 0 0 0-.58 2 12.44 12.44 0 0 0-.16 1.89 4.7 4.7 0 0 0 .09 1.1 2.58 2.58 0 0 0 .4.91 1.93 1.93 0 0 0 .79.64 2.89 2.89 0 0 0 1.26.24 2.77 2.77 0 0 0 1.89-.65 4.14 4.14 0 0 0 1.13-1.51 7.26 7.26 0 0 0 .53-1.88 12.31 12.31 0 0 0 .15-1.79 6.78 6.78 0 0 0-.1-1.2 2.73 2.73 0 0 0-.39-1 2.19 2.19 0 0 0-.77-.71 2.24 2.24 0 0 0-1.15-.29zM65.94 40A9 9 0 0 1 67 38.2a7.6 7.6 0 0 1 1.16-1.2 4.54 4.54 0 0 1 1.12-.7 2.42 2.42 0 0 1 .91-.23 2.06 2.06 0 0 1 1.77.69 2.93 2.93 0 0 1 .51 1.78v.75c0 .33-.07.79-.13 1.39S72.16 42 72.06 43s-.24 2.06-.4 3.4a3.76 3.76 0 0 0 1.9-.59l.46.79a6.31 6.31 0 0 1-1.6 1.21 3.21 3.21 0 0 1-1.42.4 1.24 1.24 0 0 1-1-.33 1.47 1.47 0 0 1-.27-1v-.67c.17-1.5.31-2.7.41-3.6s.18-1.59.23-2.09.07-.85.08-1.05 0-.38 0-.5a1.86 1.86 0 0 0-.23-1 .88.88 0 0 0-.81-.39 2.8 2.8 0 0 0-2 1.26 12.69 12.69 0 0 0-2 4.11c0 .4-.09.74-.13 1s-.07.59-.1.92-.08.72-.14 1.17-.13 1.07-.22 1.83h-1.71l.33-2.66c.15-1.31.26-2.36.35-3.13s.15-1.38.18-1.81 0-.73.06-.9 0-.32 0-.43a1.78 1.78 0 0 0-.24-.94.88.88 0 0 0-.81-.39 1.81 1.81 0 0 0-.93.28 3.67 3.67 0 0 0-1 .93 9.68 9.68 0 0 0-1 1.66 19.9 19.9 0 0 0-.9 2.52l-.67 4.91h-1.9q.41-2.94.69-5.38t.54-4.71l-2.25-.36.07-.93a12.33 12.33 0 0 1 1.67-.36 9.43 9.43 0 0 1 1.44-.11 1.32 1.32 0 0 1 .83.2.75.75 0 0 1 .24.61 9.78 9.78 0 0 1-.11 1.24c-.07.52-.15 1.11-.25 1.77h.1a10.62 10.62 0 0 1 1.11-1.85 6.6 6.6 0 0 1 1.13-1.16 4 4 0 0 1 1.05-.61 2.56 2.56 0 0 1 .89-.18 2 2 0 0 1 1.67.62 2.7 2.7 0 0 1 .54 1.61 5.71 5.71 0 0 1 0 .59c0 .24 0 .59-.07 1zm11.19-2.14l-2.28-.36.07-1a15.18 15.18 0 0 1 1.63-.33 10.41 10.41 0 0 1 1.51-.12 1.5 1.5 0 0 1 .77.16.58.58 0 0 1 .27.55V37c0 .11 0 .28-.06.51l-.12.92c-.06.38-.12.88-.18 1.49h.12a9.3 9.3 0 0 1 1.07-1.82 5.84 5.84 0 0 1 1.14-1.1 4.15 4.15 0 0 1 1.15-.61 4 4 0 0 1 1.1-.17 2.65 2.65 0 0 1 2.13 1 4.81 4.81 0 0 1 .82 3.09 11.76 11.76 0 0 1-.38 3.1 7.45 7.45 0 0 1-1.14 2.5 5.45 5.45 0 0 1-1.91 1.66 5.59 5.59 0 0 1-2.64.61 5.84 5.84 0 0 1-1.15-.18 12 12 0 0 1-1.21-.31l-.24 1.85c-.08.62-.15 1.24-.23 1.86h2.14c0 .24-.06.48-.09.72s0 .48-.08.73h-5.68l.17-1.45h1.68zm5.46-.1a2.13 2.13 0 0 0-1 .27 3.53 3.53 0 0 0-1.07.87 9.34 9.34 0 0 0-1.1 1.66 14.28 14.28 0 0 0-1.06 2.57c-.07.51-.13 1-.2 1.52s-.14 1-.21 1.53a7.37 7.37 0 0 0 1.33.38 7.54 7.54 0 0 0 1 .09A3 3 0 0 0 82.3 46a4.47 4.47 0 0 0 1.22-1.53 7.14 7.14 0 0 0 .63-2 11.44 11.44 0 0 0 .18-1.92 3.85 3.85 0 0 0-.48-2.17 1.45 1.45 0 0 0-1.26-.62zm11.47-1.59a5.67 5.67 0 0 1 1.35.17 13 13 0 0 1 1.44.45l.59-.64 1.14.07c-.14.92-.28 1.85-.43 2.79s-.27 1.86-.39 2.75-.23 1.73-.33 2.53-.18 1.51-.23 2.15a4.41 4.41 0 0 0 1-.25 9.48 9.48 0 0 0 1-.49l.22.4.23.41a7 7 0 0 1-.75.64 9 9 0 0 1-.82.55 4.23 4.23 0 0 1-.79.36 2.24 2.24 0 0 1-.71.13 1 1 0 0 1-1-.44 2 2 0 0 1-.27-1.08 8.11 8.11 0 0 1 .08-1.09c0-.36.11-.74.19-1.14h-.12a8.94 8.94 0 0 1-1.06 1.83 6.05 6.05 0 0 1-1.14 1.13 3.58 3.58 0 0 1-1.13.58 3.79 3.79 0 0 1-1.08.17 2.68 2.68 0 0 1-2.16-1 4.69 4.69 0 0 1-.82-3 12.06 12.06 0 0 1 .37-3 7.58 7.58 0 0 1 1.12-2.53 5.79 5.79 0 0 1 1.86-1.73 5.14 5.14 0 0 1 2.64-.72zM91.81 46.7a2.17 2.17 0 0 0 1-.26 3.77 3.77 0 0 0 1-.9 9.37 9.37 0 0 0 1.08-1.66 17.14 17.14 0 0 0 1-2.59l.5-3.1a7.06 7.06 0 0 0-1.35-.39 6.46 6.46 0 0 0-1-.11 3 3 0 0 0-1.93.63 4.62 4.62 0 0 0-1.23 1.57 6.93 6.93 0 0 0-.62 2 12.08 12.08 0 0 0-.18 2 3.78 3.78 0 0 0 .47 2.11 1.47 1.47 0 0 0 1.26.7zm17.63-10.57a2.7 2.7 0 0 1 1.12.21 1.75 1.75 0 0 1 .7.58 2.6 2.6 0 0 1 .35.87 5.22 5.22 0 0 1 .11 1.09v.81c0 .37-.08.85-.15 1.46s-.16 1.35-.25 2.22-.21 1.89-.36 3.07a4.63 4.63 0 0 0 1.9-.6l.23.38c.07.13.14.26.23.41a5.2 5.2 0 0 1-1.72 1.18 4 4 0 0 1-1.42.36 1.07 1.07 0 0 1-.89-.32 1.43 1.43 0 0 1-.25-.91v-.29a1.2 1.2 0 0 1 .05-.36c.17-1.5.3-2.7.4-3.61s.17-1.6.21-2.1.08-.85.1-1.06 0-.37 0-.5a1.72 1.72 0 0 0-.25-1 .89.89 0 0 0-.82-.39 2.17 2.17 0 0 0-1 .3 4.5 4.5 0 0 0-1.13.93 8.64 8.64 0 0 0-1.14 1.67 13.57 13.57 0 0 0-1 2.47l-.66 4.89h-1.88q.38-2.93.69-5.35c.21-1.63.39-3.2.57-4.72l-2.28-.36.07-1a12.53 12.53 0 0 1 3.03-.36 1.22 1.22 0 0 1 .82.19 1 1 0 0 1 .2.71 10.44 10.44 0 0 1-.08 1.25c0 .5-.14 1-.25 1.65h.1a9 9 0 0 1 1.21-1.83 6.43 6.43 0 0 1 1.29-1.16 4.69 4.69 0 0 1 1.2-.61 3.48 3.48 0 0 1 .95-.17z"/><path d="M123.72 36.1a1.09 1.09 0 0 1 .88.35 2.17 2.17 0 0 1 .28 1.31 12.1 12.1 0 0 1-.43 3 19.76 19.76 0 0 1-1.21 3.42 24.76 24.76 0 0 1-1.86 3.42 17.83 17.83 0 0 1-2.39 3 11.66 11.66 0 0 1-2.79 2.11 6.45 6.45 0 0 1-3.08.79 2.54 2.54 0 0 1-1.79-.5 1.35 1.35 0 0 1-.23-1.49l.81-.48a1.8 1.8 0 0 0 .9.61 4.44 4.44 0 0 0 1 .13 4.55 4.55 0 0 0 2.14-.61 8.93 8.93 0 0 0 2.4-2l-.51-2.87c-.2-1.06-.41-2.12-.62-3.16s-.42-2-.62-2.94-.37-1.65-.51-2.22l-1.76.48-.31-.81a5.74 5.74 0 0 1 1.55-1.09 2.92 2.92 0 0 1 1.11-.34.91.91 0 0 1 .69.22 1.91 1.91 0 0 1 .38.8c.07.26.15.61.25 1.05s.21.95.32 1.53l.36 1.87c.12.66.25 1.33.37 2s.23 1.33.34 2 .21 1.22.29 1.74A14.9 14.9 0 0 0 121.1 45a24.15 24.15 0 0 0 1.74-5.18 10 10 0 0 0 .24-1.91l-1.71.45c0-.13-.07-.26-.11-.4a4 4 0 0 0-.13-.41 6.9 6.9 0 0 1 1.4-1 2.55 2.55 0 0 1 1.19-.45z"/></g></svg>