<svg viewBox="0 0 108.31 68.29" xmlns="http://www.w3.org/2000/svg" xmlns:xlink="http://www.w3.org/1999/xlink"><linearGradient id="c" gradientTransform="matrix(23.1 31.79 20.9 -24.14 4815.84 -4127.48)" gradientUnits="userSpaceOnUse" x1="-23.56" x2="-22.56" y1="-202.2" y2="-202.2"><stop offset="0" stop-color="#00a9e8"/><stop offset=".29" stop-color="#0091d6"/><stop offset=".53" stop-color="#0081ca"/><stop offset=".94" stop-color="#00112a"/><stop offset="1" stop-color="#001"/></linearGradient><linearGradient id="a" gradientTransform="matrix(41.45 0 0 -41.45 991.99 -8354.96)" gradientUnits="userSpaceOnUse" x1="-23.56" x2="-22.56" y1="-202.18" y2="-202.18"><stop offset="0" stop-color="#ef7eb0"/><stop offset=".24" stop-color="#e6007e"/><stop offset=".54" stop-color="#b60062"/><stop offset="1" stop-color="#650033"/></linearGradient><linearGradient id="d" gradientTransform="matrix(17.45 0 0 -17.45 450.06 -3500.78)" x1="-23.56" x2="-22.56" xlink:href="#a" y1="-202.18" y2="-202.18"/><linearGradient id="b" gradientTransform="matrix(.44 0 0 -.44 77.49 -47.67)" gradientUnits="userSpaceOnUse" x1="-23.56" x2="-22.56" y1="-202.18" y2="-202.18"><stop offset="0" stop-color="#00a9e8"/><stop offset=".29" stop-color="#0091d6"/><stop offset=".53" stop-color="#0081ca"/><stop offset=".58" stop-color="#007dc4"/><stop offset=".65" stop-color="#0070b2"/><stop offset=".74" stop-color="#005b94"/><stop offset=".83" stop-color="#003f6b"/><stop offset=".94" stop-color="#001a36"/><stop offset="1" stop-color="#001"/></linearGradient><linearGradient id="e" gradientTransform="matrix(37.87 0 0 -37.87 963.01 -7607.7)" x1="-23.56" x2="-22.56" xlink:href="#b" y1="-202.18" y2="-202.18"/><linearGradient id="f" gradientTransform="matrix(17.5 0 0 -17.5 479.33 -3489.45)" x1="-23.56" x2="-22.56" xlink:href="#b" y1="-202.19" y2="-202.19"/><linearGradient id="g" gradientTransform="matrix(25.62 0 0 -25.62 670.79 -5131.6)" x1="-23.56" x2="-22.56" xlink:href="#b" y1="-202.17" y2="-202.17"/><linearGradient id="h" gradientTransform="matrix(12.36 0 0 -12.36 356.35 -2451.38)" x1="-23.56" x2="-22.56" xlink:href="#b" y1="-202.15" y2="-202.15"/><linearGradient id="i" gradientTransform="scale(37.23 -37.23) rotate(70 -154.409 -83.556)" gradientUnits="userSpaceOnUse" x1="-23.56" x2="-22.56" y1="-202.18" y2="-202.18"><stop offset="0" stop-color="#650033"/><stop offset=".46" stop-color="#b60062"/><stop offset=".76" stop-color="#e6007e"/><stop offset="1" stop-color="#ef7eb0"/></linearGradient><linearGradient id="j" gradientTransform="matrix(.27 0 0 -.27 62.47 -15.37)" x1="-23.56" x2="-22.56" xlink:href="#a" y1="-202.17" y2="-202.17"/><path d="M63.5 40.69C57.59 42.63 49.82 35.17 46.16 24S44.31 2.25 50.22.31 63.89 5.83 67.56 17s1.85 21.74-4.06 23.69z" fill="url(#c)"/><path d="M56.43 38.69l-.03.09-.2-.07-.14-.05.1.01z"/><path d="M56.43 38.69l-.03.09-.2-.07-.14-.05.1.01z"/><path d="M56.56 39.07C35.48 37.53 20.37 19 17 14.51a1.21 1.21 0 1 1 .55-1 1.22 1.22 0 0 1-.27.77c3.29 4.4 18.11 22.6 38.81 24.4l.14.05a3.06 3.06 0 0 0 .33.34z" fill="url(#a)"/><path d="M56.16 38.67h-.1A24.73 24.73 0 0 1 39.77 19.6h-.11a.94.94 0 1 1 .46-.12 24.38 24.38 0 0 0 15.63 18.68 4 4 0 0 0 .41.51z" fill="url(#d)"/><path d="M67.63 40.71h-.44.23z" fill="url(#b)"/><path d="M107.31 59.15a1.2 1.2 0 0 1-1.39-1 1.16 1.16 0 0 1 .14-.8c-3.55-3.38-17.91-16-35.62-17.58.26-.09.53-.18.8-.29 17.44 1.86 31.49 14.19 35.05 17.58a1.25 1.25 0 0 1 .61-.3 1.21 1.21 0 0 1 .41 2.38z" fill="url(#e)"/><path d="M83.39 57.68a1 1 0 0 1-.76-1.68 24.4 24.4 0 0 0-15.95-15.2 4.64 4.64 0 0 0 .51-.11h.44A24.86 24.86 0 0 1 83 55.83h.11a1 1 0 0 1 1.1.78 1 1 0 0 1-.82 1.07z" fill="url(#f)"/><path d="M67.63 40.71h-.44.23z" fill="url(#b)"/><path d="M92.38 53.75a.76.76 0 0 1-.86-.65.82.82 0 0 1 .07-.44c-2.26-2.3-11.94-11.37-24-11.95l-.21-.06 1-.25c11.74.93 21.11 9.67 23.39 12a.85.85 0 0 1 .34-.14.76.76 0 1 1 .21 1.51z" fill="url(#g)"/><path d="M77.29 52.36a.6.6 0 0 1-.5-1A15.33 15.33 0 0 0 65.45 41l.94-.14a15.7 15.7 0 0 1 10.73 10.31.6.6 0 0 1 .16 1.19z" fill="url(#h)"/><path d="M79.56 35a37.07 37.07 0 0 1-8.32 4.48c-.27.11-.54.2-.8.29-.68.24-1.35.44-2 .62l-1 .25h-.23a4.64 4.64 0 0 1-.51.11l-.29.06-.94.14c-3.74.5-6.93-.12-8.89-1.93a3.06 3.06 0 0 1-.36-.36l.2.07v-.09h-.27a4 4 0 0 1-.41-.51C52.11 33 57 23.42 66.54 16.63S86.8 8.47 90.4 13.54 89.14 28.23 79.56 35z" fill="url(#i)"/><path d="M56.43 38.69l-.03.09-.2-.07-.04-.04z" fill="url(#j)"/><path d="M0 59.34h3.47V36.95H0v-1.34h8.65v1.34H5.03v22.39H15.2v-4.42h1.48v5.75H0zm18.51-6.59a8 8 0 1 1 16 0 8 8 0 1 1-16 0zm14.51 0c0-4-2.66-6.93-6.51-6.93S20 48.79 20 52.75s2.7 6.93 6.51 6.93S33 56.75 33 52.75zm18.55 8.92a6.53 6.53 0 0 1-1.4 4.41c-1.3 1.53-3.4 2.21-5.91 2.21a7.09 7.09 0 0 1-5.18-1.75A2.21 2.21 0 0 1 38.4 65a1.36 1.36 0 0 1 1.37-1.45 1.12 1.12 0 0 1 1.1 1.18 1.43 1.43 0 0 1-.57 1.1c.5.58 1.94 1.18 4.11 1.18a5.88 5.88 0 0 0 4.69-1.78 5.29 5.29 0 0 0 1.07-3.47v-3.83a7.89 7.89 0 0 1-6 2.78 7.66 7.66 0 0 1-7.61-8 7.89 7.89 0 0 1 7.92-8.15 8.33 8.33 0 0 1 5.67 2.36v-2.09h4.12v1.26h-2.7zm-13.52-9c0 3.84 2.55 6.81 6.25 6.81a7.66 7.66 0 0 0 5.87-3v-8.3a8.17 8.17 0 0 0-5.68-2.36c-3.81 0-6.44 3.05-6.44 6.86zm17.72.08a8 8 0 1 1 16 0 8 8 0 1 1-16 0zm14.51 0c0-4-2.67-6.93-6.52-6.93s-6.51 3-6.51 6.93 2.71 6.93 6.51 6.93 6.52-2.93 6.52-6.93z" fill="#cb0359"/></svg>